<?xml version="1.0" encoding="UTF-8"?>
<svg version="1.1" xmlns="http://www.w3.org/2000/svg" width="2559" height="797">
<path d="M0 0 C4.29927666 -0.04129074 8.59866384 -0.06989343 12.89802647 -0.10062456 C16.03324147 -0.12919645 19.16762977 -0.17867028 22.30255222 -0.22924852 C24.11410826 -0.24210162 25.92567265 -0.25385169 27.73724461 -0.26422167 C28.89738575 -0.29399221 28.89738575 -0.29399221 30.08096409 -0.32436419 C36.86997453 -0.31971666 42.08643233 1.8964895 46.89544773 6.70550489 C50.30840323 11.25516497 53.22539508 16.16922375 56.20013523 21.01019239 C57.530668 23.15875153 58.86140318 25.30718533 60.19232273 27.45550489 C60.87262547 28.55668653 61.5529282 29.65786818 62.25384617 30.79241896 C64.28969399 34.07799514 66.33950314 37.35434787 68.39544773 40.62737989 C69.0543198 41.6768379 69.71319187 42.72629591 70.39202976 43.80755568 C71.63943704 45.79351377 72.88774362 47.77890742 74.13714695 49.76361036 C75.88051937 52.54571178 77.60537612 55.33844168 79.32513523 58.13519239 C80.29930393 59.69306471 80.29930393 59.69306471 81.29315281 61.28240919 C81.92890232 62.32566359 82.56465183 63.36891798 83.21966648 64.44378614 C83.79821384 65.38278761 84.37676121 66.32178907 84.97284031 67.28924513 C87.25355308 72.089077 87.46178067 76.98193487 86.32513523 82.13519239 C83.98829916 86.74209779 81.27598021 90.69758146 78.07513523 94.76019239 C77.1877372 95.89638093 76.30107159 97.03314174 75.41497898 98.17034864 C74.92626316 98.79570509 74.43754734 99.42106153 73.93402195 100.06536818 C70.80720887 104.08799659 67.72458595 108.14444672 64.63763523 112.19769239 C63.95427097 113.0941548 63.27090672 113.9906172 62.56683445 114.91424513 C57.91303365 121.02704891 53.29829057 127.16797009 48.70013523 133.32269239 C43.34203903 140.49279676 37.89198835 147.58333098 32.37884617 154.63470411 C28.1858033 160.00563451 24.07286651 165.43055722 19.99969578 170.89276075 C15.85748629 176.44268221 11.65692409 181.94662268 7.45013523 187.44769239 C0.45531598 196.60743537 -6.4391941 205.83544042 -13.22271633 215.15277052 C-14.51259793 216.91367142 -15.81946319 218.65967484 -17.13580227 220.40081739 C-17.78806789 221.28253614 -18.44033352 222.16425489 -19.11236477 223.07269239 C-19.64732571 223.78296583 -20.18228664 224.49323927 -20.73345852 225.22503614 C-21.86481225 227.06642256 -21.86481225 227.06642256 -21.40484524 229.00555372 C-20.57368387 231.43037666 -19.47391132 233.06979699 -17.93658352 235.11956739 C-17.37004055 235.88140333 -16.80349758 236.64323927 -16.21978664 237.42816114 C-15.60683743 238.23898146 -14.99388821 239.04980177 -14.36236477 239.88519239 C-13.73007961 240.73210646 -13.09779446 241.57902052 -12.44634914 242.45159864 C-10.52867197 245.01747764 -8.6026617 247.57691147 -6.67486477 250.13519239 C-5.63930677 251.51509932 -4.60411953 252.89528462 -3.56939602 254.27581739 C-2.1180927 256.21145582 -0.66623931 258.14666277 0.78778172 260.08026075 C4.6212525 265.18124501 8.41712366 270.30919755 12.20013523 275.44769239 C12.7868198 276.24449415 13.37350437 277.04129591 13.97796726 277.86224318 C16.91039245 281.84729267 19.83866305 285.83534323 22.76263523 289.82659864 C28.95199931 298.26455957 35.21289993 306.63909819 41.57513523 314.94769239 C46.33566417 321.16521638 51.02238143 327.41264328 55.52703953 333.81780958 C59.20548557 339.02658104 63.04653281 344.10820805 66.88763523 349.19769239 C88.4965202 377.9493196 88.4965202 377.9493196 88.45452976 396.75872755 C88.45624809 397.72986935 88.45796642 398.70101114 88.45973682 399.70158148 C88.46407622 402.94248934 88.46110784 406.18334629 88.45794773 409.42425489 C88.45913319 411.72621635 88.46065609 414.02817766 88.46249485 416.33013868 C88.4662665 423.80683506 88.45863991 431.28350154 88.45013523 438.76019239 C88.44786567 441.31730093 88.44562774 443.87440949 88.44342136 446.43151808 C88.42727644 463.12880594 88.38888327 479.82598219 88.33628941 496.52319288 C88.32552916 500.00762725 88.31575681 503.4920631 88.30621433 506.97650099 C88.27195034 518.95293354 88.21412931 530.92882405 88.11560154 542.90490675 C88.086791 546.46322524 88.06688172 550.0214201 88.05468845 553.57983351 C88.03989326 557.71750951 88.00612574 561.85458228 87.9569521 565.99198866 C87.94225596 567.48244624 87.93409499 568.97298599 87.93321705 570.46351576 C87.91704295 584.33231218 87.91704295 584.33231218 83.32513523 590.13519239 C77.57845565 594.65044063 72.46661861 594.75037761 65.32513523 594.63519239 C64.36607273 594.65066114 63.40701023 594.66612989 62.41888523 594.68206739 C56.18919937 594.64783835 52.31451113 593.95359232 47.32513523 590.13519239 C43.35064378 585.23720584 42.4559818 581.05465158 41.69549656 574.99261427 C41.56854342 574.08199232 41.44159027 573.17137037 41.31079006 572.23315382 C40.89060486 569.19190492 40.4927139 566.1481616 40.09466648 563.10394239 C39.79816358 560.92508611 39.50026245 558.7464197 39.20106602 556.56793165 C38.56079061 551.88385122 37.93037714 547.19858668 37.30761814 542.51214552 C36.31888681 535.07188467 35.30856656 527.63465257 34.29535007 520.19769239 C31.81763383 501.98056718 29.36913126 483.7595198 26.92743015 465.53753614 C26.04746107 458.97075265 25.1634162 452.40452489 24.27723217 445.83857679 C23.94527759 443.37330978 23.6147617 440.90784857 23.28577328 438.44218397 C22.83064007 435.0314285 22.37076753 431.62134245 21.90985203 428.21136427 C21.7127161 426.72029158 21.7127161 426.72029158 21.51159763 425.1990962 C19.66902745 411.66966025 17.65432708 404.0556217 6.45013523 395.44769239 C5.30802313 394.59853163 4.1647508 393.75092961 3.02044773 392.90472364 C-0.98146021 389.93935076 -4.82644806 386.79576574 -8.67486477 383.63519239 C-14.48505813 378.88120967 -20.37623747 374.26862872 -26.34673977 369.71722364 C-30.10190932 366.82871837 -33.76072205 363.82523526 -37.42486477 360.82269239 C-42.90541988 356.33368726 -48.46251169 351.97144907 -54.11236477 347.69769239 C-59.9140927 343.30660407 -65.58300313 338.79046388 -71.17486477 334.13519239 C-78.90197164 327.70354649 -86.83596678 321.57992958 -94.85406399 315.51702833 C-98.48864894 312.75868148 -102.08081782 309.94597181 -105.67486477 307.13519239 C-113.38563894 311.22956383 -120.88588723 315.6092749 -128.3299551 320.16903639 C-130.15577167 321.28676524 -131.98405288 322.40035939 -133.81304836 323.51287794 C-139.41378994 326.9204769 -145.00761296 330.33891733 -150.59283352 333.77191114 C-152.32838286 334.83071431 -154.064051 335.88932278 -155.79986477 336.94769239 C-156.56097561 337.42029493 -157.32208645 337.89289747 -158.10626125 338.3798213 C-168.05085608 344.4213529 -177.12234032 347.21218145 -188.78326321 347.40057325 C-189.58556803 347.41705349 -190.38787285 347.43353373 -191.21448994 347.45051336 C-193.9043415 347.50462432 -196.59426718 347.55235023 -199.28423977 347.60003614 C-201.22934535 347.63767042 -203.17444409 347.67565933 -205.1195364 347.71397352 C-210.43902352 347.81747933 -215.7586036 347.91514867 -221.07822323 348.01157331 C-225.55791028 348.09338499 -230.03753617 348.17831671 -234.51716709 348.26313734 C-271.26217579 348.95775808 -308.00851888 349.58285077 -344.75501919 350.19295073 C-347.44800526 350.2376771 -350.14098813 350.2825896 -352.83396816 350.3276782 C-360.56491332 350.45710254 -368.29588425 350.58475938 -376.02690411 350.70964956 C-378.37527867 350.74778754 -380.72364494 350.78644023 -383.07200146 350.82567358 C-389.31615248 350.9296735 -395.56020775 351.02014196 -401.80478573 351.09415388 C-404.65536914 351.13491363 -407.50486438 351.19779643 -410.35497952 351.26306105 C-412.12940368 351.29124026 -413.90383783 351.31880032 -415.67828274 351.34564161 C-416.85199775 351.38127809 -416.85199775 351.38127809 -418.04942417 351.41763449 C-425.16389166 351.49165974 -432.4360554 350.02330958 -437.73345852 344.97503614 C-438.38427395 344.36128126 -439.03508938 343.74752638 -439.70562649 343.11517286 C-443.10822878 339.69400938 -446.45505758 336.2346888 -449.73736477 332.69769239 C-450.40574368 331.98548536 -451.07412258 331.27327833 -451.76275539 330.53948927 C-466.13667606 315.15981322 -466.13667606 315.15981322 -466.01080227 308.23675489 C-465.39840659 304.40572145 -463.52348023 302.62773092 -460.67486477 300.13519239 C-454.76154484 298.35662839 -448.7961323 297.47751366 -442.68656826 296.65774488 C-441.70870281 296.52283978 -440.73083736 296.38793468 -439.72333962 296.24894154 C-436.46219592 295.79993699 -433.20025004 295.35705117 -429.9382925 294.91400099 C-427.59375586 294.5921838 -425.24928521 294.26988555 -422.90487576 293.94714308 C-417.86387678 293.25352259 -412.82260066 292.56196326 -407.78115559 291.871593 C-399.80865507 290.77844647 -391.83797409 289.67245075 -383.86775112 288.56283522 C-383.19621468 288.46937092 -382.52467824 288.37590663 -381.83279222 288.27961008 C-378.39953859 287.80176758 -374.96630502 287.32378113 -371.53308594 286.84569049 C-364.47018201 285.86215916 -357.40723127 284.87896774 -350.34405422 283.89739943 C-349.63565748 283.79894801 -348.92726073 283.70049659 -348.19739742 283.5990618 C-336.71067941 282.00335037 -325.22106443 280.42945667 -313.73035776 278.86275987 C-301.91899 277.25175184 -290.11146217 275.61452062 -278.30699784 273.95368016 C-271.68446643 273.02273541 -265.06064664 272.10512358 -258.43227863 271.2165637 C-252.20053963 270.38093608 -245.97409167 269.51337289 -239.75021648 268.62111616 C-237.46660046 268.29955255 -235.18129088 267.98976095 -232.89436054 267.6926837 C-229.76953238 267.28498418 -226.65357509 266.83518805 -223.53617764 266.37454176 C-222.63208784 266.26691649 -221.72799805 266.15929122 -220.79651159 266.04840457 C-213.75893364 264.93506345 -210.79865834 261.76106163 -206.67486477 256.13519239 C-205.4313052 254.77798281 -204.17988689 253.42782306 -202.91314602 252.09222364 C-201.95686306 251.08083326 -201.95686306 251.08083326 -200.98126125 250.04901075 C-200.32327541 249.3555757 -199.66528957 248.66214064 -198.98736477 247.94769239 C-194.16747874 242.84816753 -189.36105012 237.73862966 -184.61236477 232.57269239 C-180.16198716 227.73287822 -175.67642558 222.92743288 -171.17486477 218.13519239 C-166.65332656 213.32138963 -162.14689053 208.49503611 -157.67486477 203.63519239 C-153.20283863 198.77534827 -148.69636635 193.94902998 -144.17486477 189.13519239 C-139.63338641 184.29978951 -135.10592856 179.45266946 -130.61236477 174.57269239 C-123.40971379 166.75066666 -116.14487725 158.98697237 -108.88384914 151.21917677 C-102.81725867 144.72825647 -96.75562879 138.23348265 -90.73736477 131.69769239 C-85.60685376 126.12599535 -80.42888995 120.59984474 -75.24371243 115.07904005 C-70.85931962 110.40751383 -66.50235459 105.71195357 -62.16314602 100.99847364 C-57.82994399 96.29451637 -53.46767306 91.6180758 -49.09649563 86.94940138 C-43.2579932 80.70696069 -37.46873479 74.41902023 -31.67486477 68.13519239 C-40.64824496 66.4040523 -49.62228637 64.67637164 -58.59673977 62.95080519 C-61.85385749 62.32450931 -65.11084583 61.69754668 -68.36773586 61.07006788 C-86.66112515 57.54655029 -104.9602531 54.06137804 -123.28577137 50.7084918 C-125.88578841 50.23252041 -128.48554532 49.75515363 -131.08521938 49.27731276 C-132.78786823 48.96446 -134.49052018 48.65162417 -136.19317532 48.33880568 C-137.02546437 48.18587112 -137.85775343 48.03293657 -138.71526337 47.87536764 C-143.65043602 46.96971521 -148.58738414 46.07458774 -153.52578354 45.18670988 C-156.61243496 44.62940726 -159.69733522 44.06283665 -162.78186893 43.49394178 C-164.20587653 43.23339758 -165.63061442 42.97680652 -167.05612659 42.72462416 C-176.66301668 41.02312302 -185.64593428 39.16553355 -193.23736477 32.69769239 C-194.05463039 32.01320021 -194.87189602 31.32870802 -195.71392727 30.62347364 C-197.17959133 29.39177443 -197.17959133 29.39177443 -198.67486477 28.13519239 C-200.03428519 27.04215865 -201.39647133 25.95255936 -202.76080227 24.86566114 C-203.47808498 24.29194777 -204.1953677 23.71823439 -204.93438625 23.12713575 C-206.36422088 21.98355655 -207.79596677 20.84236212 -209.22979641 19.70379591 C-215.82154429 14.38911384 -215.82154429 14.38911384 -217.67486477 11.13519239 C-217.60293423 7.68252663 -217.14116545 5.77001672 -215.0918951 2.98012877 C-211.82673744 0.4878108 -209.01095021 0.57364254 -205.06487942 0.61621046 C-203.90809728 0.60495858 -203.90809728 0.60495858 -202.7279458 0.59347939 C-200.13901653 0.57315609 -197.55095952 0.58131545 -194.96197414 0.58929396 C-193.10488424 0.58055773 -191.24780186 0.57007178 -189.39073086 0.55796766 C-184.32766106 0.52998942 -179.26483515 0.52670685 -174.20169926 0.52768755 C-168.85411763 0.52454569 -163.50664332 0.49887024 -158.1591177 0.47570753 C-147.96827817 0.43501652 -137.77750236 0.4147963 -127.5865941 0.40173364 C-116.20051648 0.38614181 -104.81455611 0.34767509 -93.42854404 0.30721331 C-79.21598714 0.25689689 -65.00347238 0.21122769 -50.79083157 0.1943965 C-49.74679448 0.19315354 -48.7027574 0.19191058 -47.62708282 0.19062996 C-43.5225937 0.18587621 -39.41810452 0.18123248 -35.31361485 0.17697954 C-23.54172683 0.16384209 -11.77130883 0.11832964 0 0 Z " fill="#4EA6D8" transform="translate(465.67486476898193,88.86480760574341)"/>
<path d="M0 0 C215.73602107 0 215.73602107 0 231.875 4.25 C232.73319336 4.46688477 233.59138672 4.68376953 234.47558594 4.90722656 C253.69778403 9.93259111 271.68243054 18.20009734 287 31 C287.99515625 31.83144531 288.9903125 32.66289062 290.015625 33.51953125 C313.98654749 54.20145589 327.20198733 83.88258846 331 115 C331.11198973 117.65059329 331.18630316 120.27531357 331.203125 122.92578125 C331.21022995 123.66639801 331.2173349 124.40701477 331.22465515 125.17007446 C331.45784721 156.62033544 331.45784721 156.62033544 328 169 C327.76893555 169.82951172 327.53787109 170.65902344 327.29980469 171.51367188 C318.39792191 202.35113749 299.93358072 227.99570489 271.78564453 244.02539062 C251.67835671 255 251.67835671 255 242 255 C246.20526388 262.84769469 250.62671091 270.54175848 255.1875 278.1875 C255.88390384 279.35836317 256.58010573 280.52934647 257.27612305 281.70043945 C258.75310621 284.18498187 260.23114239 286.66889336 261.70996094 289.15234375 C264.40036702 293.67132908 267.08463756 298.19394846 269.76872253 302.71669006 C271.75022827 306.05555233 273.73207998 309.39420736 275.71508789 312.73217773 C279.35607772 318.86108921 282.99579223 324.99073147 286.62736511 331.12522888 C288.62563305 334.50071193 290.62503218 337.87552389 292.625 341.25 C293.0184964 341.91399811 293.4119928 342.57799622 293.81741333 343.26211548 C299.39744603 352.67286046 305.04964145 362.03674972 310.75 371.375 C316.46801668 380.74889684 322.07244736 390.17871293 327.5625 399.6875 C328.53751465 401.37335205 328.53751465 401.37335205 329.53222656 403.09326172 C334 410.87090453 334 410.87090453 334 412 C300.01 412 266.02 412 231 412 C226.05 402.76 221.1 393.52 216 384 C211.10255714 375.31310744 211.10255714 375.31310744 206.1796875 366.640625 C202.87062092 360.80444973 199.67876096 354.90790394 196.5 349 C192.25607598 341.11387384 187.92943224 333.28344945 183.5 325.5 C178.58172182 316.85754484 173.78748278 308.15655866 169.10351562 299.38476562 C163.25217007 288.47962633 157.09573925 277.78476945 151 267 C130.21 266.67 109.42 266.34 88 266 C88 314.18 88 362.36 88 412 C58.96 412 29.92 412 0 412 C0 276.04 0 140.08 0 0 Z M88 78 C88 114.3 88 150.6 88 188 C104.685625 188.0825 121.37125 188.165 138.5625 188.25 C143.80326416 188.28641602 149.04402832 188.32283203 154.44360352 188.36035156 C159.20012143 188.37374102 159.20012143 188.37374102 163.95664978 188.3817749 C166.05185865 188.38785998 168.14705478 188.40180747 170.24217224 188.42230225 C191.62504405 188.62075673 210.38904821 186.2717402 226.5234375 170.6953125 C236.39300318 159.95398707 241.14691428 146.56287785 241 132 C240.01107714 116.4421243 234.61423269 103.50811529 223 93 C208.73843812 80.76645839 191.37230426 77.80967574 173.14404297 77.88647461 C172.20117998 77.88635407 171.25831699 77.88623354 170.2868824 77.88610935 C167.27195906 77.88684842 164.25709961 77.89443023 161.2421875 77.90234375 C159.3659671 77.90381629 157.48974629 77.90483508 155.61352539 77.90539551 C148.70067728 77.91061222 141.78783799 77.92457346 134.875 77.9375 C111.671875 77.9684375 111.671875 77.9684375 88 78 Z " fill="#004855" transform="translate(820,111)"/>
<path d="M0 0 C96.36 0 192.72 0 292 0 C292 25.74 292 51.48 292 78 C224.68 78 157.36 78 88 78 C88 106.38 88 134.76 88 164 C153.67 164 219.34 164 287 164 C287 189.74 287 215.48 287 242 C221.33 242 155.66 242 88 242 C88 272.36 88 302.72 88 334 C155.32 334 222.64 334 292 334 C292 359.74 292 385.48 292 412 C195.64 412 99.28 412 0 412 C0 276.04 0 140.08 0 0 Z " fill="#004855" transform="translate(1216,111)"/>
<path d="M0 0 C215.18932482 0 215.18932482 0 232.4375 4.25 C233.34306641 4.46543457 234.24863281 4.68086914 235.18164062 4.90283203 C243.15175995 6.88122042 250.54285278 9.55823975 258 13 C259.80210937 13.81984375 259.80210937 13.81984375 261.640625 14.65625 C269.41882091 18.36015282 276.27261748 22.63130343 283 28 C283.52480957 28.41266113 284.04961914 28.82532227 284.59033203 29.25048828 C292.42686891 35.44933386 299.01349309 41.93533684 305 50 C305.60199219 50.78761719 306.20398437 51.57523438 306.82421875 52.38671875 C319.51723582 69.64351724 326.77923209 89.91635775 330 111 C330.18304687 112.17304688 330.36609375 113.34609375 330.5546875 114.5546875 C334.89964198 150.81034057 326.63488764 187.7480951 304.375 216.9375 C280.5289659 245.58068549 248.51816547 261.56654839 211.45357895 265.25328732 C204.34104087 265.89476855 197.31176659 266.13858998 190.17285156 266.11352539 C188.47569818 266.11370619 188.47569818 266.11370619 186.74425888 266.11389065 C183.12636005 266.11315158 179.50851446 266.10556975 175.890625 266.09765625 C173.63916041 266.09618371 171.38769547 266.09516492 169.13623047 266.09460449 C160.84081505 266.08938778 152.54540699 266.07542654 144.25 266.0625 C116.40625 266.0315625 116.40625 266.0315625 88 266 C88 314.18 88 362.36 88 412 C58.96 412 29.92 412 0 412 C0 276.04 0 140.08 0 0 Z M88 78 C88 114.3 88 150.6 88 188 C103.736875 188.04125 119.47375 188.0825 135.6875 188.125 C140.63322998 188.14320801 145.57895996 188.16141602 150.67456055 188.18017578 C155.15701919 188.18686985 155.15701919 188.18686985 159.63948059 188.19088745 C161.61641849 188.19393318 163.59335298 188.20091372 165.57026672 188.21115112 C188.42552761 188.32345977 209.32660567 186.61495815 226.8984375 170.25390625 C236.87194325 159.55741402 241.40731805 145.59434004 241.2109375 131.12109375 C240.22835342 116.58248857 235.09022456 102.78341466 224 93 C205.21643185 78.39188744 184.52326907 77.68455861 161.6328125 77.8046875 C159.74080524 77.80763534 157.84879634 77.80967121 155.95678711 77.81079102 C149.01283288 77.82119247 142.06891377 77.84911466 135.125 77.875 C119.57375 77.91625 104.0225 77.9575 88 78 Z " fill="#004855" transform="translate(1575,111)"/>
<path d="M0 0 C12.92491368 -0.53484256 25.84716756 -0.94248282 38.78092384 -1.19167995 C44.78860897 -1.31134997 50.78868791 -1.47330055 56.79199219 -1.73510742 C96.82015411 -3.4357053 96.82015411 -3.4357053 104.46838379 2.1383667 C109.58269444 7.36864458 112.07300531 13.31380592 114.13153076 20.25021362 C115.28982562 23.91765893 116.97069605 26.53431435 119.15625 29.6875 C119.71570312 30.57759766 120.27515625 31.46769531 120.8515625 32.38476562 C121.39554688 33.24779297 121.93953125 34.11082031 122.5 35 C127.39435128 42.79717259 132.22866763 50.6269651 137 58.5 C142.34290788 67.31436941 147.77396381 76.06950858 153.24951172 84.80200195 C159.27242965 94.41487755 165.21385799 104.07701004 171.15234375 113.7421875 C175.68683099 121.1215996 180.24525164 128.48606532 184.80859375 135.84765625 C187.09726637 139.54000992 189.38009279 143.2359178 191.66015625 146.93359375 C192.56084839 148.39285278 192.56084839 148.39285278 193.47973633 149.8815918 C194.63820577 151.75869255 195.79563675 153.63643469 196.9519043 155.51489258 C197.46793213 156.35044678 197.98395996 157.18600098 198.515625 158.046875 C198.97227539 158.78776367 199.42892578 159.52865234 199.89941406 160.29199219 C200.88820893 161.95867075 200.88820893 161.95867075 202 163 C202.40089844 162.34854004 202.80179688 161.69708008 203.21484375 161.02587891 C203.78332031 160.10210449 204.35179688 159.17833008 204.9375 158.2265625 C205.5771167 157.18717529 206.2167334 156.14778809 206.87573242 155.0769043 C208.31074328 152.74500643 209.74580822 150.41314185 211.1809082 148.08129883 C214.84413301 142.12895338 218.50681851 136.17627798 222.16796875 130.22265625 C229.89980583 117.65082932 237.64829931 105.0895862 245.42333984 92.54443359 C248.11708554 88.19723359 250.80842678 83.8485453 253.5 79.5 C256.7137066 74.30788832 259.92780403 69.11602221 263.14453125 63.92578125 C264.20056828 62.22138356 265.25655749 60.51695625 266.3125 58.8125 C266.84174072 57.95841553 267.37098145 57.10433105 267.91625977 56.22436523 C270.91568083 51.37997171 273.90457607 46.52932426 276.8828125 41.671875 C277.89347778 40.02481567 277.89347778 40.02481567 278.92456055 38.34448242 C280.19844258 36.26749078 281.47092046 34.18963671 282.74145508 32.1105957 C284.0288466 30.01210162 285.37078653 27.94651487 286.75292969 25.90917969 C288.70851089 22.83320256 289.74330828 19.80425689 290.83300781 16.33300781 C293.47007402 9.27820592 296.35482028 3.90431075 303 0 C317.83555958 -4.29178945 335.10130241 -2.15187174 350.31750488 -1.51062012 C356.25553671 -1.28424832 362.1956027 -1.18481835 368.13671875 -1.07421875 C379.76321558 -0.83929551 391.38057239 -0.46463152 403 0 C401.33498086 4.34346792 399.17933471 8.14871834 396.6875 12.0625 C396.25236084 12.752229 395.81722168 13.44195801 395.36889648 14.15258789 C390.18526106 22.33933247 384.88317803 30.45003427 379.58740234 38.56445312 C377.17454224 42.26649748 374.77405301 45.97649859 372.375 49.6875 C371.70609741 50.72185181 371.70609741 50.72185181 371.02368164 51.77709961 C370.12997707 53.15913539 369.23634065 54.54121525 368.34277344 55.92333984 C366.06276071 59.44948316 363.78129794 62.97468809 361.5 66.5 C360.58332659 67.9166623 359.66665992 69.33332897 358.75 70.75 C331.25 113.25 303.75 155.75 276.25 198.25 C275.79616943 198.95141113 275.34233887 199.65282227 274.87475586 200.37548828 C273.95903799 201.79061471 273.04318535 203.20565393 272.12719727 204.62060547 C269.81989503 208.18513105 267.51503306 211.75119214 265.21484375 215.3203125 C264.74949219 216.04154297 264.28414062 216.76277344 263.8046875 217.50585938 C262.94569498 218.83729778 262.08750193 220.16925267 261.23046875 221.50195312 C260.823125 222.13294922 260.41578125 222.76394531 259.99609375 223.4140625 C259.5816847 224.0717736 259.16727566 224.72948469 258.74030876 225.40712643 C257.42503839 227.36673834 256.01471533 229.26299656 254.56305122 231.12382603 C247.16948034 240.83565703 245.55643438 248.20013018 245.77294922 260.21655273 C245.76588758 261.88379224 245.75442954 263.55101792 245.7389679 265.21820068 C245.70966035 269.69528379 245.74098399 274.17003359 245.78413153 278.64692569 C245.81877576 283.3434677 245.79637001 288.03975044 245.78030396 292.73634338 C245.75847703 301.60789585 245.78712974 310.4785202 245.834427 319.34994417 C245.89545859 331.35332543 245.87748357 343.35658045 245.86419678 355.36006641 C245.84535845 374.24058186 245.93118774 393.11912919 246 412 C216.96 412 187.92 412 158 412 C158.10183594 400.13933594 158.20367188 388.27867187 158.30859375 376.05859375 C158.3396631 368.5070633 158.3668879 360.95583635 158.37695312 353.40429688 C158.3936056 341.43963624 158.42514278 329.47645334 158.55883789 317.51245117 C158.65617939 308.79513983 158.69935447 300.07943283 158.68036038 291.36157185 C158.67213876 286.75456195 158.68907722 282.1510658 158.77114677 277.54470634 C159.13752562 255.85472627 158.54731345 240.60313246 143.91333199 223.34935188 C140.70474131 219.40957112 138.07319471 215.10968234 135.375 210.8125 C134.31241339 209.17154412 133.24762037 207.53201282 132.1796875 205.89453125 C131.65600586 205.08838379 131.13232422 204.28223633 130.59277344 203.45166016 C128.4387053 200.13603289 126.28383122 196.8209298 124.12890625 193.50585938 C122.50511701 191.00787185 120.88146455 188.50979545 119.2578125 186.01171875 C117.06558485 182.63901012 114.87282092 179.26665096 112.6796875 175.89453125 C107.16305886 167.41141363 101.65349769 158.92385458 96.15917969 150.42626953 C91.00556932 142.4580522 85.83101805 134.50346199 80.65722656 126.54833984 C77.93741031 122.36604137 75.21875722 118.18298696 72.5 114 C71.41667239 112.33332961 70.33333905 110.66666295 69.25 109 C46.5 74 46.5 74 23.75 39 C23.2127832 38.17371094 22.67556641 37.34742188 22.12207031 36.49609375 C21.04776897 34.84292443 19.97419131 33.18928459 18.90136719 31.53515625 C16.06085146 27.15768466 13.20521738 22.79103494 10.328125 18.4375 C9.72935547 17.52742188 9.13058594 16.61734375 8.51367188 15.6796875 C7.36331824 13.93186338 6.20856944 12.18692173 5.04882812 10.4453125 C4.53255859 9.65898438 4.01628906 8.87265625 3.484375 8.0625 C3.02772461 7.37285156 2.57107422 6.68320313 2.10058594 5.97265625 C0.98304311 3.96960699 0.51051048 2.22182256 0 0 Z " fill="#004855" transform="translate(2156,111)"/>
<path d="M0 0 C29.37 0 58.74 0 89 0 C89 110.22 89 220.44 89 334 C146.42 334 203.84 334 263 334 C263 359.74 263 385.48 263 412 C176.21 412 89.42 412 0 412 C0 276.04 0 140.08 0 0 Z " fill="#004855" transform="translate(1956,111)"/>
<path d="M0 0 C11.22 0 22.44 0 34 0 C37.37495967 10.12487902 37.37495967 10.12487902 38.32090759 13.89163208 C38.53801895 14.74898453 38.75513031 15.60633698 38.9788208 16.4896698 C39.20487 17.39687271 39.43091919 18.30407562 39.66381836 19.23876953 C39.9114241 20.22060715 40.15902985 21.20244476 40.41413879 22.21403503 C41.22590592 25.43616553 42.03285819 28.65948146 42.83984375 31.8828125 C43.40856939 34.14338356 43.97763122 36.40387007 44.54701233 38.66427612 C46.04278975 44.60562182 47.53463187 50.54794819 49.02545166 56.49053955 C51.40649904 65.97887714 53.79358282 75.46569779 56.18057442 84.95254135 C57.00812385 88.24387109 57.83403127 91.53560927 58.65965271 94.8274231 C61.35826224 105.57443089 64.09589433 116.30645695 67 127 C69.10798664 119.31354402 71.21111029 111.62576192 73.3125 103.9375 C73.63736389 102.74936707 73.96222778 101.56123413 74.29693604 100.33709717 C78.64385663 84.42903206 82.94334202 68.5089722 87.19140625 52.57421875 C87.62764208 50.93877455 88.06388574 49.30333245 88.50013733 47.66789246 C90.43485327 40.4129292 92.36710773 33.15733172 94.29178143 25.8996973 C95.0938947 22.87758472 95.8986852 19.85618948 96.70409966 16.83495522 C97.08142149 15.41693266 97.45750108 13.99857893 97.83229256 12.57988548 C98.34524134 10.63854152 98.86267809 8.69838501 99.38037109 6.75830078 C99.67044037 5.66510529 99.96050964 4.57190979 100.2593689 3.44558716 C101 1 101 1 102 0 C103.85369611 -0.08737645 105.71067541 -0.10698153 107.56640625 -0.09765625 C108.69111328 -0.09443359 109.81582031 -0.09121094 110.97460938 -0.08789062 C112.15861328 -0.07951172 113.34261719 -0.07113281 114.5625 -0.0625 C115.75037109 -0.05798828 116.93824219 -0.05347656 118.16210938 -0.04882812 C121.10812468 -0.03699674 124.05402967 -0.01967523 127 0 C131.12975255 14.29813095 135.09988831 28.63183987 138.94921875 43.0078125 C139.49380937 45.03657068 140.0385566 47.06528683 140.58345032 49.09396362 C141.99915895 54.36626549 143.4129115 59.63908975 144.82617188 64.91204834 C146.54570352 71.32629616 148.26752419 77.73992982 149.98906422 84.15363884 C151.57490756 90.06195598 153.15990265 95.97049932 154.7439394 101.87930107 C155.43039593 104.43806968 156.11827421 106.9964521 156.80648804 109.55474854 C157.53537391 112.26463236 158.25792356 114.97584538 158.9750061 117.68890381 C159.37566788 119.19423676 159.37566788 119.19423676 159.78442383 120.72998047 C160.10954704 121.96408157 160.10954704 121.96408157 160.4412384 123.22311401 C160.85118798 125.00532946 160.85118798 125.00532946 162 126 C162.25341156 124.99666122 162.50682312 123.99332245 162.76791382 122.95957947 C165.2069497 113.30303542 167.64674632 103.64668383 170.0872097 93.99050045 C171.34056026 89.03127326 172.59368098 84.07198828 173.84619141 79.11254883 C180.50996066 52.72757274 187.22653668 26.35706888 194 0 C205.55 0 217.1 0 229 0 C226.75011821 11.24940894 226.75011821 11.24940894 225.34960938 16.11694336 C225.03231369 17.22723907 224.71501801 18.33753479 224.3881073 19.48147583 C224.04346939 20.67223724 223.69883148 21.86299866 223.34375 23.08984375 C222.96877864 24.39669562 222.59418245 25.70365519 222.21992493 27.01071167 C221.19850244 30.57431835 220.17226523 34.13652206 219.14514542 37.69849014 C218.05457965 41.4833539 216.96816724 45.26940904 215.8815918 49.05541992 C215.42577435 50.64351131 214.96994842 52.23160026 214.51411438 53.81968689 C214.28339045 54.62352247 214.05266651 55.42735806 213.81495094 56.25555229 C213.09553719 58.7611525 212.37554175 61.26658499 211.65544128 63.77198792 C208.02787668 76.39671635 204.42410754 89.02813094 200.82902908 101.66214561 C199.04040246 107.94694194 197.24996214 114.23122193 195.45975685 120.51556873 C193.98763719 125.683939 192.51662189 130.85261897 191.04785156 136.02194214 C189.65617974 140.91957929 188.26139009 145.81631802 186.86427879 150.71240616 C186.34561924 152.53219585 185.82813085 154.35231978 185.31185341 156.17278671 C184.60520489 158.66399539 183.89455143 161.15402658 183.18286133 163.64379883 C182.9747155 164.38129836 182.76656967 165.11879789 182.55211639 165.8786459 C181.11407928 170.88592072 181.11407928 170.88592072 180 172 C177.55169574 172.08843793 175.13179401 172.11528752 172.68359375 172.09765625 C171.95253922 172.0962413 171.22148468 172.09482635 170.46827698 172.09336853 C168.12464368 172.08775408 165.78110461 172.07519922 163.4375 172.0625 C161.85221492 172.05748686 160.26692834 172.05292363 158.68164062 172.04882812 C154.78772699 172.03862929 150.89387678 172.01966967 147 172 C143.03948348 157.94544154 139.29891248 143.83774387 135.60546875 129.7109375 C135.00738442 127.42734791 134.40918179 125.14378931 133.81086731 122.86026001 C132.25290504 116.91286388 130.69652674 110.96505441 129.14050293 105.01715088 C127.54581616 98.92263675 125.94959721 92.82852396 124.35351562 86.734375 C121.23419604 74.82330409 118.11655337 62.91179497 115 51 C112.90420224 54.97327113 111.80289618 59.06609537 110.6809082 63.39501953 C110.45777451 64.24141495 110.23464081 65.08781036 110.00474548 65.95985413 C109.26593739 68.76643374 108.53338765 71.57460826 107.80078125 74.3828125 C107.28273153 76.35515897 106.76426643 78.32739638 106.2454071 80.29953003 C104.87481953 85.51311458 103.50940513 90.72803992 102.14520264 95.94329834 C99.98544779 104.19557868 97.81711471 112.44561306 95.65063095 120.69612885 C94.86831134 123.67615179 94.08660448 126.65633499 93.30496216 129.63653564 C89.59526651 143.77402228 85.8249343 157.89316077 82 172 C70.78 172 59.56 172 48 172 C47.18547363 169.11886475 46.37094727 166.23772949 45.53173828 163.26928711 C42.4229459 152.27352206 39.31299619 141.27808449 36.20269775 130.28274536 C34.82174431 125.4008688 33.44102474 120.51892618 32.06048584 115.63693237 C22.07617897 80.32492636 22.07617897 80.32492636 12 45.0390625 C11.56533388 43.52370829 11.13067191 42.00835289 10.6960144 40.49299622 C9.12820307 35.02908445 7.56005054 29.56528408 5.98150635 24.10446167 C4.9455607 20.51972945 3.91388196 16.93379333 2.8828125 13.34765625 C2.4350647 11.80853073 2.4350647 11.80853073 1.97827148 10.23831177 C1.71361084 9.31541351 1.4489502 8.39251526 1.17626953 7.44165039 C0.94698761 6.64884171 0.71770569 5.85603302 0.48147583 5.03919983 C0 3 0 3 0 0 Z " fill="#4EA6D8" transform="translate(1204,625)"/>
<path d="M0 0 C14.3961218 12.41876504 23.55538214 28.5621975 25.296875 47.58203125 C26.61002855 67.82648178 20.40030049 85.6811899 7.375 101.1875 C-5.47183428 114.90678483 -22.23438835 121.74990913 -40.81640625 123.34765625 C-58.56224753 123.84845913 -76.18390836 118.009103 -89.5 106.0625 C-90.58474609 105.11503906 -90.58474609 105.11503906 -91.69140625 104.1484375 C-104.29621984 92.41806952 -111.705641 76.26709056 -112.73828125 59.1015625 C-113.22267725 39.85227631 -108.4889109 22.79219277 -95.5 8.0625 C-94.84386719 7.31226562 -94.18773437 6.56203125 -93.51171875 5.7890625 C-68.84743108 -20.63373928 -27.96431753 -21.412188 0 0 Z " fill="#4EA6D8" transform="translate(656.5,14.9375)"/>
<path d="M0 0 C14.1075 -0.061875 28.215 -0.12375 42.75 -0.1875 C47.18276367 -0.21481201 51.61552734 -0.24212402 56.18261719 -0.27026367 C61.65087891 -0.28381348 61.65087891 -0.28381348 64.22149658 -0.28633118 C65.99349232 -0.29089818 67.76547951 -0.30136565 69.53741455 -0.31672668 C87.66255084 -0.46581958 104.20657491 1.62823081 117.96875 14.7421875 C130.21956914 28.35944416 132.83388083 43.91547251 132.18359375 61.54150391 C131.27213481 73.74681183 124.92199865 85.73576685 116 94 C108.93045861 99.4724728 101.5650371 102.59341889 93 105 C99.14327701 115.38660661 105.38210707 125.70261797 111.875 135.875 C112.44895508 136.77468506 113.02291016 137.67437012 113.61425781 138.60131836 C116.72680039 143.46995296 119.85780567 148.32623666 123 153.17578125 C123.64855957 154.18205566 124.29711914 155.18833008 124.96533203 156.22509766 C126.21569167 158.16473762 127.47167268 160.10076812 128.73388672 162.03271484 C129.29350098 162.90234863 129.85311523 163.77198242 130.4296875 164.66796875 C130.92710449 165.43391357 131.42452148 166.1998584 131.93701172 166.98901367 C133 169 133 169 133 172 C121.12 172 109.24 172 97 172 C94.710625 168.019375 92.42125 164.03875 90.0625 159.9375 C82.83250533 147.29730665 82.83250533 147.29730665 75.2265625 134.8828125 C72.81859597 130.94815659 71.17191306 126.7473611 69.50146484 122.45654297 C66.94632784 117.5962977 63.3374857 113.36026357 60 109 C50.43 108.67 40.86 108.34 31 108 C31 129.12 31 150.24 31 172 C20.77 172 10.54 172 0 172 C0 115.24 0 58.48 0 0 Z M31 27 C31 44.82 31 62.64 31 81 C40.8071875 81.061875 40.8071875 81.061875 50.8125 81.125 C52.85284424 81.14320801 54.89318848 81.16141602 56.99536133 81.18017578 C76.22380102 81.4748308 76.22380102 81.4748308 93 73 C99.20825911 65.7191758 100.38555001 59.74283256 100.26953125 50.32421875 C99.72063038 43.55444137 97.28682509 38.89741944 92.4375 34.1875 C84.44770128 27.96474274 75.76972683 26.39300824 65.86328125 26.609375 C64.97008179 26.61340332 64.07688232 26.61743164 63.15661621 26.62158203 C59.87502995 26.64223762 56.5937405 26.69807909 53.3125 26.75 C45.949375 26.8325 38.58625 26.915 31 27 Z " fill="#4EA6D8" transform="translate(1059,625)"/>
<path d="M0 0 C1.64510941 0.00015915 3.29022379 0.00585551 4.93530273 0.01586914 C6.23164894 0.01799156 6.23164894 0.01799156 7.55418396 0.02015686 C10.32578941 0.025773 13.09731528 0.0383282 15.86889648 0.05102539 C17.74324428 0.05603831 19.61759334 0.06060158 21.49194336 0.06469727 C26.09679192 0.07574767 30.70158069 0.09302309 35.30639648 0.11352539 C46.90763877 29.33558936 58.47476169 58.57051469 69.95629883 87.83984375 C70.86856939 90.16544658 71.78084153 92.49104879 72.69311523 94.81665039 C73.145979 95.97121231 73.59884277 97.12577423 74.06542969 98.31532288 C77.27858098 106.50370467 80.50322707 114.68749286 83.7327137 122.86944008 C85.26684728 126.7571919 86.79924251 130.64562929 88.33161449 134.53407574 C89.55689243 137.64276423 90.78372996 140.75081669 92.01266479 143.85806274 C93.36873821 147.28711203 94.720798 150.71771891 96.07202148 154.14868164 C96.47302567 155.15956848 96.87402985 156.17045532 97.28718567 157.2119751 C97.65736313 158.15409851 98.02754059 159.09622192 98.40893555 160.06689453 C98.88898041 161.28246788 98.88898041 161.28246788 99.37872314 162.52259827 C100.50548603 165.66956864 101.3881119 168.89952935 102.30639648 172.11352539 C90.75639648 172.11352539 79.20639648 172.11352539 67.30639648 172.11352539 C62.15750232 161.81573706 58.34897805 150.89374291 54.30639648 140.11352539 C28.56639648 139.78352539 2.82639648 139.45352539 -23.69360352 139.11352539 C-24.68360352 142.41352539 -25.67360352 145.71352539 -26.69360352 149.11352539 C-27.33733531 150.95598134 -28.00131267 152.79174333 -28.70141602 154.61352539 C-29.04817383 155.51973633 -29.39493164 156.42594727 -29.75219727 157.35961914 C-30.10411133 158.2684082 -30.45602539 159.17719727 -30.81860352 160.11352539 C-31.17825195 161.05325195 -31.53790039 161.99297852 -31.90844727 162.96118164 C-34.53206431 169.79044697 -34.53206431 169.79044697 -35.69360352 172.11352539 C-47.24360352 172.11352539 -58.79360352 172.11352539 -70.69360352 172.11352539 C-69.82057802 167.74839789 -68.58410596 163.89684986 -66.98266602 159.78149414 C-66.70340775 159.05493622 -66.42414948 158.3283783 -66.13642883 157.57980347 C-65.20149716 155.15184323 -64.26026834 152.72638149 -63.31860352 150.30102539 C-62.64475834 148.55749247 -61.97101405 146.81392055 -61.29736328 145.0703125 C-55.36665115 129.74734384 -49.32020726 114.47021329 -43.2590332 99.19848633 C-36.8286007 82.99582687 -30.43977582 66.77705563 -24.06860352 50.55102539 C-23.61315155 49.39136261 -23.15769958 48.23169983 -22.68844604 47.03689575 C-21.36437779 43.66540815 -20.04069607 40.29376898 -18.71704102 36.92211914 C-18.29719437 35.85335037 -17.87734772 34.7845816 -17.44477844 33.6834259 C-15.31365613 28.25526058 -13.19087962 22.82402777 -11.08129883 17.38745117 C-10.66490143 16.31648697 -10.24850403 15.24552277 -9.81948853 14.1421051 C-9.02849881 12.10662477 -8.23964305 10.07031352 -7.45321655 8.0330658 C-7.1040921 7.13544022 -6.75496765 6.23781464 -6.39526367 5.31298828 C-5.93659409 4.12788414 -5.93659409 4.12788414 -5.46865845 2.9188385 C-4.07059715 -0.33762539 -3.95225909 0.12147534 0 0 Z M15.30639648 33.11352539 C10.45069445 44.3347354 6.22573822 55.79444192 1.93139648 67.23852539 C0.46655546 71.13745468 -0.99994669 75.03575601 -2.46704102 78.93383789 C-2.8214325 79.87761292 -3.17582397 80.82138794 -3.54095459 81.79376221 C-5.25928109 86.35848368 -6.99905583 90.91259636 -8.79223633 95.44848633 C-9.11995026 96.27887421 -9.44766418 97.10926208 -9.78530884 97.96481323 C-10.40010422 99.51640761 -11.01929521 101.06627022 -11.64364624 102.61404419 C-12.8272916 105.59963611 -13.69360352 107.8701734 -13.69360352 111.11352539 C5.77639648 111.11352539 25.24639648 111.11352539 45.30639648 111.11352539 C43.33933738 104.55666171 41.31952752 98.22421989 38.86499023 91.86352539 C38.54071548 91.01462738 38.21644073 90.16572937 37.88233948 89.29110718 C36.83960617 86.56392504 35.79184508 83.8387072 34.74389648 81.11352539 C34.024195 79.23424589 33.30479568 77.35485065 32.58569336 75.4753418 C30.8203075 70.86387109 29.05076084 66.25401287 27.27923584 61.64489746 C26.3789562 59.30232906 25.47943554 56.95947135 24.58032227 54.61645508 C21.82870695 47.44635668 19.07219567 40.27816548 16.30639648 33.11352539 C15.97639648 33.11352539 15.64639648 33.11352539 15.30639648 33.11352539 Z " fill="#4EA6D8" transform="translate(872.693603515625,624.886474609375)"/>
<path d="M0 0 C12.87 0 25.74 0 39 0 C47.54208626 21.61670809 56.06519508 43.2406562 64.5625 64.875 C65.0220105 66.0448645 65.481521 67.214729 65.95495605 68.42004395 C70.55833316 80.1400971 75.16048672 91.86063024 79.76097012 103.58181953 C81.99001606 109.26095751 84.21965859 114.93986113 86.44943237 120.61871338 C87.83078868 124.13738243 89.21142711 127.65633257 90.59204102 131.17529297 C91.45449871 133.37210609 92.31704516 135.56888438 93.1796875 137.765625 C93.58881882 138.80828522 93.99795013 139.85094543 94.41947937 140.92520142 C96.39453247 145.95027265 98.38478312 150.96840576 100.40722656 155.97460938 C100.78340118 156.90690369 101.15957581 157.839198 101.54714966 158.79974365 C102.25203064 160.54277612 102.95992646 162.28459355 103.6713562 164.02496338 C106 169.78053444 106 169.78053444 106 172 C94.12 172 82.24 172 70 172 C66.04 161.44 62.08 150.88 58 140 C32.26 139.67 6.52 139.34 -20 139 C-20.99 142.3 -21.98 145.6 -23 149 C-23.64373179 150.84245595 -24.30770915 152.67821794 -25.0078125 154.5 C-25.35457031 155.40621094 -25.70132812 156.31242188 -26.05859375 157.24609375 C-26.41050781 158.15488281 -26.76242187 159.06367187 -27.125 160 C-27.48464844 160.93972656 -27.84429688 161.87945313 -28.21484375 162.84765625 C-30.83846079 169.67692158 -30.83846079 169.67692158 -32 172 C-43.55 172 -55.1 172 -67 172 C-65.87509342 165.25056053 -65.87509342 165.25056053 -64.49145508 161.80126953 C-64.1812442 161.01918121 -63.87103333 160.2370929 -63.55142212 159.43130493 C-63.21089813 158.59030243 -62.87037415 157.74929993 -62.51953125 156.8828125 C-62.15951019 155.97937103 -61.79948914 155.07592957 -61.42855835 154.14511108 C-60.64314959 152.17602562 -59.855033 150.20801857 -59.06454468 148.2409668 C-57.3414024 143.9525782 -55.63164399 139.65889137 -53.9209137 135.36553955 C-53.01113104 133.08268021 -52.10066606 130.80009269 -51.18955994 128.51776123 C-46.60125139 117.01997562 -42.07144222 105.49949464 -37.55078125 93.97497559 C-36.18451616 90.49239424 -34.81703631 87.01029218 -33.44921875 83.52832031 C-29.34463674 73.07811656 -25.24380985 62.62645663 -21.15270138 52.17097092 C-19.11107112 46.95327269 -17.0677671 41.73623198 -15.02338505 36.51961136 C-13.80391322 33.40748746 -12.58587269 30.29482027 -11.36972046 27.18139648 C-10.02633456 23.74233793 -8.67954428 20.30463062 -7.33203125 16.8671875 C-6.7382518 15.34307755 -6.7382518 15.34307755 -6.13247681 13.78817749 C-5.76238495 12.84600372 -5.39229309 11.90382996 -5.01098633 10.93310547 C-4.69317703 10.12050262 -4.37536774 9.30789978 -4.04792786 8.47067261 C-2.82597664 5.58970959 -1.39950796 2.79901593 0 0 Z M19 33 C15.07262724 42.2311816 11.4374118 51.56157857 7.875 60.9375 C7.30973386 62.4226387 6.74438426 63.90774563 6.17895508 65.39282227 C5.31279709 67.66814754 4.44691016 69.94357388 3.58192444 72.21934509 C1.90007337 76.64296117 0.20938575 81.06303369 -1.49121094 85.47947693 C-2.52413665 88.16309042 -3.55324171 90.84815951 -4.58172607 93.53347778 C-5.30077144 95.40694138 -6.02461436 97.27856139 -6.74853516 99.15014648 C-7.17827637 100.27493408 -7.60801758 101.39972168 -8.05078125 102.55859375 C-8.42887939 103.54142334 -8.80697754 104.52425293 -9.1965332 105.53686523 C-10.15505752 108.04353836 -10.15505752 108.04353836 -10 111 C9.47 111 28.94 111 49 111 C44.93772882 99.39351091 40.88780053 87.83835071 36.50390625 76.359375 C36.02043641 75.08767252 35.53720134 73.81588075 35.05418396 72.54400635 C33.8120904 69.27516016 32.56692032 66.00749534 31.32098389 62.7401123 C30.03820743 59.37435958 28.75851198 56.00743575 27.47851562 52.640625 C24.98860054 46.09263538 22.49541608 39.54589542 20 33 C19.67 33 19.34 33 19 33 Z " fill="#4EA6D8" transform="translate(1490,625)"/>
<path d="M0 0 C10.23 0 20.46 0 31 0 C31.33 25.74 31.66 51.48 32 78 C41.03738572 67.49884828 41.03738572 67.49884828 49.765625 56.796875 C52.68190247 53.14642977 55.65199013 49.54179867 58.625 45.9375 C59.22554199 45.20942139 59.82608398 44.48134277 60.44482422 43.73120117 C61.68081465 42.23325408 62.91698186 40.73545283 64.15332031 39.23779297 C67.68004684 34.96413149 71.20108444 30.68578187 74.72216797 26.4074707 C77.78446312 22.68736519 80.85051002 18.97043483 83.921875 15.2578125 C84.56253906 14.48244141 85.20320313 13.70707031 85.86328125 12.90820312 C87.09390343 11.41897194 88.32562314 9.93064682 89.55859375 8.44335938 C90.11160156 7.77369141 90.66460938 7.10402344 91.234375 6.4140625 C91.72131836 5.8257666 92.20826172 5.2374707 92.70996094 4.63134766 C93.88455631 3.14598689 94.9495831 1.57562535 96 0 C98.9795099 -0.26653946 101.7488582 -0.34767784 104.7265625 -0.29296875 C105.58937836 -0.28872391 106.45219421 -0.28447906 107.34115601 -0.28010559 C110.10275197 -0.26328392 112.86362383 -0.22562598 115.625 -0.1875 C117.49478114 -0.17245764 119.3645737 -0.15876846 121.234375 -0.14648438 C125.82319658 -0.11336906 130.41147544 -0.06156339 135 0 C133.28877436 3.63401577 131.20066113 6.12637103 128.4375 9.0625 C124.96608181 12.79595956 121.6408372 16.59216657 118.4375 20.5625 C114.84917586 25.00849037 111.0940452 29.25124677 107.24609375 33.47265625 C104.93812402 36.06962393 102.74444137 38.73404013 100.5625 41.4375 C96.70174863 46.211403 92.62562925 50.73388428 88.46875 55.25 C85.28353973 58.79808233 82.30925389 62.4967568 79.31640625 66.20703125 C75.37769222 70.95607093 71.19263325 75.47475702 67 80 C69.78067551 84.33629817 72.81465714 88.29062789 76.1875 92.1875 C77.17131932 93.33660096 78.15438171 94.48635037 79.13671875 95.63671875 C79.62188965 96.20438965 80.10706055 96.77206055 80.60693359 97.35693359 C82.603574 99.71189152 84.55298338 102.1039417 86.5 104.5 C89.80624074 108.5633048 93.16816429 112.57299309 96.5625 116.5625 C100.43546366 121.1164243 104.20622695 125.73495053 107.91796875 130.421875 C110.3308443 133.40967587 112.81810578 136.33043484 115.3125 139.25 C119.67188062 144.36042362 123.86654629 149.57905066 127.99072266 154.88061523 C131.71146009 159.65913017 135.53995062 164.33601782 139.41796875 168.98828125 C141 171 141 171 141 172 C135.66629834 172.3745577 130.34041322 172.64450688 124.99658203 172.82397461 C123.18565514 172.89882625 121.37561716 173.00077456 119.56787109 173.1315918 C105.01299352 174.15743309 105.01299352 174.15743309 100.03518677 170.59310913 C96.49911941 167.1213174 93.82283146 163.17288164 91.24707031 158.96035767 C89.21479871 155.76568678 86.82046046 152.87382243 84.4375 149.9375 C83.52664348 148.78021902 82.61754743 147.62154825 81.7109375 146.4609375 C81.26331055 145.88956055 80.81568359 145.31818359 80.35449219 144.72949219 C79.4514974 143.5764974 78.5485026 142.4235026 77.64550781 141.27050781 C76.2851161 139.53402508 74.92406782 137.7980607 73.5625 136.0625 C72.88670898 135.20108398 72.88670898 135.20108398 72.19726562 134.32226562 C68.8044241 130.00541619 65.37539642 125.71850876 61.9375 121.4375 C56.52714329 114.69897861 51.23852584 107.87266775 46 101 C44.03909808 103.10182301 42.08121556 105.20632283 40.125 107.3125 C39.56941406 107.90740234 39.01382812 108.50230469 38.44140625 109.11523438 C37.90644531 109.69208984 37.37148437 110.26894531 36.8203125 110.86328125 C36.32805176 111.39219971 35.83579102 111.92111816 35.32861328 112.46606445 C32.35484848 115.89939121 31.74207479 117.95221962 31.68115234 122.3894043 C31.66128265 123.49031906 31.64141296 124.59123383 31.62094116 125.72550964 C31.60361435 127.50687065 31.60361435 127.50687065 31.5859375 129.32421875 C31.56657135 130.54075638 31.5472052 131.75729401 31.5272522 133.01069641 C31.46738979 136.90289257 31.42104382 140.79511819 31.375 144.6875 C31.33682641 147.32358073 31.29777505 149.95964891 31.2578125 152.59570312 C31.16002804 159.0637374 31.08051027 165.53163512 31 172 C20.77 172 10.54 172 0 172 C0 115.24 0 58.48 0 0 Z " fill="#4EA6D8" transform="translate(1743,625)"/>
<path d="M0 0 C10.23 0 20.46 0 31 0 C31 47.52 31 95.04 31 144 C56.08 144 81.16 144 107 144 C107 153.24 107 162.48 107 172 C71.69 172 36.38 172 0 172 C0 115.24 0 58.48 0 0 Z " fill="#4EA6D8" transform="translate(1611,625)"/>
<path d="M0 0 C10.23 0 20.46 0 31 0 C31 56.76 31 113.52 31 172 C20.77 172 10.54 172 0 172 C0 115.24 0 58.48 0 0 Z " fill="#4EA6D8" transform="translate(992,625)"/>
</svg>
